<svg width="20" height="17" viewBox="0 0 20 17" fill="none" xmlns="http://www.w3.org/2000/svg">
<path d="M7.26 16.52V14.8H5.5V13.08H3.72V11.38H1.96V9.66H0.2V6.96H1.96V5.24H3.72V3.52H5.5V1.82H7.26V0.0999994H9.82V2.84H8.04V4.54H6.28V6.26H4.5V7.96H2.74V8.64H4.5V10.36H6.28V12.06H8.04V13.78H9.82V16.52H7.26ZM9.39219 16.52V13.78H11.1522V12.06H12.9322V10.36H14.6922V8.64H16.4722V7.96H14.6922V6.26H12.9322V4.54H11.1522V2.84H9.39219V0.0999994H11.9322V1.82H13.6922V3.52H15.4722V5.24H17.2122V6.96H19.0122V9.66H17.2122V11.38H15.4722V13.08H13.6922V14.8H11.9322V16.52H9.39219Z" fill="#1A1A1A"/>
</svg>
