<svg width="856" height="219" viewBox="0 0 856 219" fill="none" xmlns="http://www.w3.org/2000/svg">
<path d="M86.141 196.617V175.585H64.87V154.792H43.36V133.999H22.089V112.967H0.818001V83.57H22.328V62.777H43.36V41.745H64.87V20.952H86.141V0.15899H114.582V30.034H93.072V50.588H72.04V71.62H50.291V92.413H29.259V104.124H50.291V125.156H72.04V145.71H93.072V166.742H114.582V196.617H86.141ZM113.055 196.617V166.742H134.565V145.71H155.836V125.156H177.107V104.124H198.617V92.413H177.107V71.62H155.836V50.588H134.326V30.034H113.055V0.15899H141.496V20.952H162.767V41.745H184.038V62.777H205.07V83.57H226.819V112.967H205.309V133.999H184.038V154.792H162.767V175.585H141.496V196.617H113.055ZM243.933 174.868V21.191H268.072V107.47H287.192V86.199H330.69V64.45H355.068V88.35H333.08V109.86H289.582V129.219H333.08V150.968H355.068V174.868H330.69V153.358H287.192V131.609H268.072V174.868H243.933ZM389.103 218.127V196.617H367.354V172.717H391.493V194.227H454.35V153.358H389.103V131.609H367.354V64.45H391.493V129.219H454.35V64.45H478.489V196.617H456.74V218.127H389.103ZM517.192 174.868V153.358H495.443V86.199H517.192V64.45H584.59V86.199H606.578V153.358H584.59V174.868H517.192ZM519.582 150.968H582.2V88.35H519.582V150.968ZM518.148 46.764V27.644H585.546V46.764H518.148ZM623.533 174.868V86.199H645.282V64.45H712.68V86.199H734.668V109.86H710.29V88.35H647.672V174.868H623.533ZM766.135 174.868V153.358H744.386V86.199H766.135V64.45H833.533V86.199H855.521V109.86H831.143V88.35H768.525V107.47H812.023V131.609H768.525V150.968H831.143V128.98H855.521V153.119H833.533V174.868H766.135Z" fill="#1A1A1A"/>
</svg>
